<?xml version="1.0" standalone="no"?>
<!DOCTYPE svg PUBLIC "-//W3C//DTD SVG 20010904//EN"
 "http://www.w3.org/TR/2001/REC-SVG-20010904/DTD/svg10.dtd">
<svg version="1.0" xmlns="http://www.w3.org/2000/svg"
 width="783.000000pt" height="783.000000pt" viewBox="0 0 783.000000 783.000000"
 preserveAspectRatio="xMidYMid meet">
<metadata>
Created by potrace 1.14, written by Peter Selinger 2001-2017
</metadata>
<g transform="translate(0.000000,783.000000) scale(0.100000,-0.100000)"
fill="#000000" stroke="none">
<path d="M3717 7814 c-1 -1 -54 -5 -117 -9 -63 -3 -128 -8 -145 -10 -16 -2
-53 -7 -82 -9 -86 -9 -205 -27 -288 -45 -27 -6 -61 -13 -75 -15 -76 -13 -223
-49 -312 -77 -57 -17 -137 -41 -178 -54 -111 -33 -375 -146 -540 -232 -290
-151 -593 -352 -654 -435 -37 -50 -85 -179 -100 -270 -3 -18 -8 -44 -11 -58
-3 -14 -7 -45 -10 -70 -40 -320 -46 -369 -50 -400 -2 -14 -9 -63 -15 -110 -13
-108 -19 -156 -25 -200 -16 -121 -25 -201 -29 -240 -3 -25 -7 -65 -10 -90 -8
-65 -14 -126 -21 -200 -3 -36 -8 -78 -10 -95 -2 -16 -6 -57 -10 -90 -3 -33 -8
-69 -10 -80 -4 -21 -18 -213 -19 -254 0 -15 -11 -31 -32 -45 -39 -25 -50 -61
-61 -197 -10 -112 -9 -258 0 -433 7 -124 7 -130 -14 -152 -22 -24 -22 -25 -23
-486 0 -255 2 -488 4 -518 7 -104 12 -112 120 -190 l100 -71 1 -47 c7 -352 93
-723 230 -995 18 -34 40 -84 49 -112 51 -146 226 -488 313 -609 122 -172 409
-381 842 -613 352 -190 326 -178 429 -188 33 -3 75 -8 91 -10 203 -25 1429
-25 1711 -1 125 11 180 19 212 30 33 11 471 248 590 319 138 83 352 237 445
320 84 75 159 177 232 312 26 50 51 95 56 100 13 17 136 288 149 329 7 21 34
84 60 140 108 227 161 410 199 681 9 67 15 124 26 279 3 51 9 72 22 81 128 91
170 125 183 150 13 25 15 106 17 527 0 273 -3 514 -7 535 -5 21 -16 43 -25 49
-11 8 -14 22 -10 55 13 103 13 468 0 565 -14 113 -22 134 -59 154 -20 10 -26
22 -27 49 -1 20 -3 45 -4 56 -1 11 -6 62 -10 114 -4 52 -8 102 -10 112 -2 10
-6 46 -10 81 -3 35 -8 79 -10 98 -5 41 -12 110 -20 195 -3 33 -8 71 -10 85 -2
14 -7 57 -10 95 -4 39 -8 77 -10 85 -2 8 -7 44 -10 80 -4 36 -8 67 -10 70 -2
3 -6 39 -10 80 -4 41 -8 77 -10 80 -2 3 -6 34 -10 70 -3 36 -8 72 -10 80 -2 8
-6 40 -10 70 -3 30 -8 71 -10 90 -3 19 -7 58 -10 85 -9 86 -15 128 -25 180 -5
28 -12 66 -15 85 -13 78 -64 224 -84 240 -3 3 -18 21 -32 40 -50 67 -416 303
-657 424 -195 98 -427 194 -577 240 -66 21 -140 44 -165 51 -42 13 -242 58
-313 70 -18 3 -48 10 -67 15 -19 5 -55 11 -80 14 -25 3 -99 12 -165 20 -66 9
-176 19 -245 22 -111 5 -499 11 -503 8z m473 -108 c80 -3 156 -8 170 -10 14
-3 56 -7 93 -11 37 -3 76 -8 85 -10 9 -1 39 -6 66 -9 28 -4 80 -13 116 -21 36
-8 77 -16 90 -19 424 -84 873 -261 1249 -493 88 -55 276 -177 291 -190 2 -2
-11 -33 -28 -68 -37 -72 -33 -99 14 -108 29 -5 48 10 77 63 17 32 18 33 32 13
17 -25 60 -171 69 -233 3 -25 8 -56 11 -69 5 -29 22 -154 30 -231 3 -30 8 -73
11 -95 4 -22 7 -49 9 -60 3 -26 16 -123 20 -155 2 -14 6 -50 10 -80 4 -30 8
-66 10 -80 14 -94 31 -237 40 -325 3 -33 7 -76 10 -95 8 -60 16 -132 20 -200
3 -36 7 -76 10 -90 13 -73 16 -130 6 -130 -34 0 -73 -203 -86 -450 -3 -58 -8
-123 -10 -145 -3 -22 -7 -169 -11 -327 l-7 -286 -53 -58 c-30 -32 -55 -56 -57
-53 -2 2 -9 40 -16 84 -7 44 -24 130 -38 190 -14 61 -26 119 -29 129 -2 11
-19 76 -39 145 -19 69 -42 162 -50 206 -8 44 -17 89 -19 100 -2 11 -7 45 -11
75 -4 30 -9 63 -11 73 -11 63 -14 181 -5 232 5 33 13 80 16 105 4 25 12 88 20
140 7 52 16 120 20 150 3 30 8 66 10 80 3 14 7 45 9 70 3 25 8 77 12 115 10
107 11 114 18 200 4 44 9 94 11 110 2 17 7 73 10 125 4 52 8 118 10 145 2 28
7 154 11 281 l6 230 -38 38 c-113 109 -511 334 -826 467 -155 65 -380 132
-519 155 -52 8 -103 16 -114 18 -41 7 -44 3 -147 -184 -14 -25 -33 -70 -43
-100 -10 -30 -19 -58 -22 -62 -2 -4 -18 8 -36 27 -31 33 -38 36 -162 55 -152
24 -165 26 -270 37 -155 16 -678 8 -737 -12 -7 -2 -35 -6 -63 -9 -87 -10 -225
-35 -238 -43 -6 -4 -22 -20 -36 -35 -21 -26 -35 -29 -36 -10 -3 45 -139 316
-167 333 -12 8 -45 5 -123 -10 -27 -6 -67 -13 -89 -16 -81 -11 -327 -88 -455
-141 -169 -70 -323 -148 -516 -260 -82 -47 -163 -94 -178 -103 -27 -15 -29
-15 -49 9 -11 14 -31 46 -44 72 l-24 47 87 59 c275 184 504 309 785 426 87 36
161 66 164 66 4 0 70 20 148 45 115 36 258 71 451 111 11 2 31 6 45 9 14 3 45
7 70 10 25 3 55 7 67 9 12 3 53 8 90 12 37 3 79 8 93 10 14 1 86 6 160 10 74
3 136 7 137 8 3 3 278 -2 413 -8z m-1240 -541 c36 -65 93 -216 104 -275 2 -14
10 -47 16 -75 6 -27 27 -151 45 -275 42 -286 41 -279 74 -320 27 -33 31 -35
107 -40 43 -3 354 -5 689 -5 454 1 616 4 632 13 39 22 69 107 88 247 52 404
92 567 177 725 41 77 44 80 73 75 17 -3 61 -10 100 -16 87 -14 318 -82 394
-115 31 -14 84 -36 117 -49 156 -59 669 -345 711 -397 9 -11 5 -33 -21 -98
-19 -47 -37 -114 -42 -150 -4 -36 -8 -67 -9 -70 -2 -9 -15 -105 -20 -150 -13
-109 -16 -137 -20 -165 -2 -16 -7 -52 -10 -80 -3 -27 -8 -60 -10 -72 -3 -12
-7 -41 -10 -65 -3 -24 -10 -65 -15 -93 -5 -27 -11 -66 -14 -85 -3 -19 -10 -57
-15 -85 -6 -27 -13 -63 -16 -80 -3 -16 -14 -82 -26 -145 -28 -156 -28 -159
-35 -210 -3 -25 -8 -54 -10 -65 -3 -11 -7 -62 -9 -113 -3 -52 -7 -106 -9 -120
-3 -15 -8 -63 -12 -107 -3 -44 -10 -86 -14 -94 -6 -12 -267 -84 -380 -106 -14
-3 -34 -7 -45 -9 -106 -23 -176 -38 -205 -42 -19 -3 -38 -8 -41 -10 -18 -11
-561 -94 -709 -109 -30 -3 -75 -8 -100 -10 -25 -3 -79 -8 -120 -12 -166 -16
-882 -8 -1000 11 -14 3 -61 7 -104 11 -43 4 -87 8 -96 10 -9 2 -39 6 -66 9
-27 4 -65 9 -84 11 -19 3 -53 7 -75 10 -46 6 -79 12 -103 19 -9 3 -39 7 -67
11 -27 3 -68 10 -90 15 -22 5 -56 11 -75 14 -127 20 -712 155 -725 168 -2 2
-7 30 -10 63 -3 33 -8 71 -10 84 -2 13 -7 67 -10 120 -7 106 -27 278 -40 341
-3 14 -8 41 -11 60 -3 19 -19 105 -34 190 -32 169 -36 195 -45 255 -3 22 -10
65 -15 95 -11 61 -16 101 -25 175 -3 28 -8 64 -10 80 -3 17 -7 51 -10 78 -8
71 -16 139 -20 167 -22 147 -33 195 -60 259 l-31 76 31 26 c78 67 521 313 685
380 41 17 89 36 105 44 118 53 338 116 460 131 28 3 52 8 55 10 14 14 36 -9
70 -71z m-1521 -342 c10 -21 29 -49 40 -62 l22 -25 -35 -35 -35 -36 4 -150 c4
-162 14 -379 20 -435 2 -19 6 -79 10 -134 4 -54 8 -108 10 -120 2 -11 6 -61
10 -110 4 -49 8 -98 10 -110 2 -11 6 -52 10 -91 3 -38 7 -83 10 -100 2 -16 7
-52 10 -80 3 -27 12 -93 20 -146 8 -53 17 -118 21 -145 3 -27 12 -81 18 -120
7 -39 12 -77 11 -85 -1 -8 -5 -51 -9 -95 -4 -45 -9 -93 -11 -105 -29 -177 -53
-291 -90 -429 -42 -153 -95 -392 -109 -484 -4 -22 -9 -42 -12 -45 -3 -3 -17
10 -32 29 -15 19 -38 45 -51 58 -24 22 -25 30 -27 145 -5 317 -24 723 -39 827
-2 14 -7 48 -10 75 -10 76 -24 126 -50 171 -14 23 -23 43 -21 45 2 2 7 35 11
74 3 38 8 72 10 75 1 3 6 46 9 97 4 50 8 100 10 110 2 10 7 45 10 78 3 33 8
76 11 95 3 19 7 55 10 80 4 45 9 83 20 170 3 25 8 65 11 90 3 25 7 56 9 70 9
56 43 324 50 390 10 90 26 214 30 220 1 3 6 27 9 54 4 27 11 56 15 65 4 9 14
39 20 66 11 46 35 95 46 95 3 0 13 -17 24 -37z m3086 -77 c-5 -32 -32 -213
-40 -278 -13 -99 -17 -123 -22 -128 -2 -3 -245 -5 -539 -5 -473 -1 -534 1
-538 15 -2 8 -7 41 -11 74 -4 32 -8 68 -10 80 -2 11 -6 42 -9 68 -8 69 -25
175 -32 191 -4 13 79 15 601 15 l606 0 -6 -32z m72 -408 c-3 -8 -6 -5 -6 6 -1
11 2 17 5 13 3 -3 4 -12 1 -19z m-1318 -53 c0 -5 -4 -3 -9 5 -5 8 -9 22 -9 30
0 16 17 -16 18 -35z m1303 3 c-8 -8 -9 -4 -5 13 4 13 8 18 11 10 2 -7 -1 -18
-6 -23z m-3035 -30 c-3 -8 -6 -5 -6 6 -1 11 2 17 5 13 3 -3 4 -12 1 -19z
m4758 -95 c-3 -54 -8 -118 -10 -143 -2 -25 -7 -83 -10 -129 -4 -46 -8 -92 -10
-102 -2 -10 -7 -58 -10 -106 -4 -48 -8 -99 -10 -113 -2 -14 -7 -56 -11 -95 -3
-38 -7 -77 -9 -85 -2 -9 -6 -43 -10 -75 -4 -33 -9 -67 -10 -76 -2 -9 -6 -40
-10 -70 -3 -30 -9 -67 -11 -84 -3 -16 -7 -43 -9 -60 -3 -16 -10 -61 -16 -99
-10 -63 -8 -167 7 -266 18 -120 57 -327 74 -390 31 -114 81 -312 86 -340 3
-14 7 -31 9 -37 2 -7 -6 -23 -19 -36 -18 -18 -26 -40 -31 -89 -14 -132 15
-238 66 -238 16 0 -23 -40 -147 -155 -258 -237 -625 -599 -728 -718 -112 -130
-268 -337 -349 -465 -84 -132 -199 -363 -200 -398 0 -28 25 -54 46 -50 26 6
47 19 47 28 0 20 131 270 190 364 94 149 224 321 368 484 123 140 729 727 739
716 8 -7 -63 -184 -114 -286 -50 -99 -144 -250 -177 -286 -6 -7 -25 -29 -43
-50 -45 -56 -55 -68 -186 -206 -232 -247 -331 -392 -385 -570 -26 -84 -34
-152 -34 -292 0 -63 -5 -120 -12 -132 -18 -35 -265 -244 -288 -244 -11 0 -73
107 -134 232 -31 62 -66 123 -77 136 -29 32 -68 41 -282 67 -224 28 -1156 28
-1330 0 -16 -2 -50 -6 -75 -9 -101 -9 -177 -28 -202 -49 -14 -12 -63 -94 -108
-182 -45 -88 -90 -169 -100 -179 -19 -19 -20 -19 -72 21 -54 41 -117 95 -197
169 l-44 40 -2 140 c-3 163 -9 206 -37 294 -53 166 -158 323 -357 532 -263
277 -336 376 -440 588 -56 116 -116 270 -104 270 3 0 35 -28 71 -62 36 -35
120 -115 186 -178 415 -393 613 -613 797 -886 90 -133 145 -230 209 -367 46
-98 68 -117 106 -92 13 8 24 25 24 36 0 30 -130 284 -209 409 -108 170 -246
348 -410 529 -107 118 -110 121 -639 626 -114 109 -127 118 -156 111 -19 -5
-24 0 -34 29 -8 27 -7 35 1 33 26 -5 56 14 68 43 32 79 25 246 -12 285 -15 16
-19 30 -15 55 7 49 50 222 74 304 20 66 45 174 57 247 6 37 22 128 30 173 2
17 7 65 11 108 3 43 7 86 8 95 2 9 -1 34 -5 56 -10 54 -17 100 -24 161 -4 28
-8 57 -10 65 -6 22 -38 272 -50 390 -3 30 -8 78 -10 105 -6 49 -8 72 -20 205
-3 36 -8 83 -10 105 -2 22 -7 90 -11 150 -3 61 -8 113 -11 118 -2 4 0 7 4 7 5
0 15 -51 22 -112 7 -62 15 -121 17 -132 2 -10 6 -44 10 -75 3 -31 8 -58 9 -61
2 -3 6 -29 10 -59 4 -30 9 -63 11 -75 6 -31 23 -126 29 -166 3 -19 12 -66 20
-105 24 -118 64 -366 69 -435 3 -36 8 -96 11 -135 3 -38 8 -97 13 -130 7 -62
9 -172 3 -260 -2 -27 -17 -88 -33 -135 -49 -140 -67 -211 -58 -234 21 -56 224
-203 359 -262 157 -67 456 -86 771 -50 19 3 60 7 90 10 91 10 132 15 265 36
131 21 144 35 201 222 l18 58 45 -5 c213 -20 633 -26 846 -11 66 5 137 9 158
10 l38 1 35 -106 c21 -65 43 -114 57 -127 26 -25 103 -42 292 -66 423 -52 641
-54 865 -5 151 33 460 244 460 314 0 12 -22 87 -48 166 -62 186 -71 314 -37
534 2 17 7 69 10 118 3 48 12 129 19 180 8 50 17 108 20 127 3 19 8 45 10 56
2 12 7 38 10 58 3 19 10 55 15 78 6 24 19 97 30 163 12 66 23 131 25 145 3 14
10 61 16 105 6 44 13 91 15 105 9 65 14 100 21 165 4 39 9 73 10 78 1 4 2 23
3 42 0 19 4 35 7 35 3 0 3 -44 -1 -97z m-4751 61 c3 -8 2 -12 -4 -9 -6 3 -10
10 -10 16 0 14 7 11 14 -7z m-433 -1566 c1 -18 3 -42 4 -53 31 -227 38 -1246
11 -1495 -3 -19 -7 -71 -10 -115 -9 -110 -17 -179 -21 -183 -4 -5 -76 48 -87
62 -4 6 -5 13 -3 16 1 3 6 39 9 80 4 41 9 95 11 120 3 25 8 106 11 180 4 74 8
171 10 215 3 44 6 327 8 628 3 523 4 548 22 562 28 21 34 18 35 -17z m5672
-77 c-12 -145 -4 -1019 12 -1241 2 -30 6 -109 10 -175 6 -115 9 -152 20 -250
5 -43 4 -46 -37 -75 -23 -17 -45 -27 -49 -23 -4 5 -10 46 -13 93 -4 47 -8 99
-11 115 -34 278 -24 1510 14 1663 1 2 14 -5 31 -14 l29 -18 -6 -75z m-4473
-191 c162 -35 460 -92 555 -105 22 -3 51 -8 65 -10 14 -3 41 -7 60 -10 19 -2
69 -9 110 -15 41 -6 102 -13 135 -15 33 -3 76 -7 95 -10 19 -2 78 -7 130 -10
52 -4 120 -8 150 -11 69 -5 539 -5 600 0 25 2 96 7 159 11 62 4 122 8 131 10
10 2 56 6 101 10 46 4 86 8 89 10 3 2 35 6 70 10 36 3 72 8 80 10 8 2 37 7 64
10 118 13 494 85 726 139 36 8 76 17 90 20 14 2 76 18 138 34 l112 31 1 -25
c1 -13 2 -32 3 -41 1 -20 -36 -30 -344 -92 -191 -39 -223 -45 -305 -56 -22 -4
-51 -8 -65 -11 -33 -6 -77 -12 -125 -18 -22 -2 -76 -9 -120 -15 -44 -5 -109
-13 -145 -16 -36 -4 -76 -8 -90 -10 -14 -2 -97 -7 -185 -10 -88 -4 -180 -9
-205 -11 -278 -23 -770 -23 -945 0 -16 2 -97 7 -180 11 -82 3 -175 8 -205 11
-30 2 -80 7 -110 10 -30 2 -68 6 -85 9 -16 2 -68 9 -115 15 -254 32 -534 83
-756 136 -56 13 -109 24 -118 24 -11 0 -16 9 -16 29 0 60 0 60 143 24 73 -19
211 -51 307 -73z m-414 -86 c52 -8 56 -14 8 -12 -21 1 -50 -2 -62 -6 -22 -7
-23 -6 -12 13 6 12 15 19 19 16 5 -2 26 -7 47 -11z m4113 -11 c11 -21 10 -21
-19 -7 -16 9 -34 13 -40 9 -5 -3 -10 -2 -10 4 0 7 41 19 56 16 1 0 6 -10 13
-22z m-86 0 c-7 -2 -19 -2 -25 0 -7 3 -2 5 12 5 14 0 19 -2 13 -5z m-4537
-884 c14 -46 44 -151 67 -234 35 -130 46 -159 86 -215 25 -35 51 -72 56 -81 6
-9 29 -44 52 -77 24 -33 61 -102 84 -154 92 -210 338 -679 452 -864 31 -49 83
-125 117 -169 54 -70 61 -84 57 -115 -2 -19 -37 -123 -76 -230 -39 -107 -78
-219 -86 -249 l-14 -54 102 -102 c95 -94 160 -154 232 -214 55 -46 167 -131
174 -132 3 0 15 -3 26 -6 37 -9 96 -8 103 3 4 6 48 46 97 89 50 43 97 86 106
94 26 27 151 135 169 148 16 11 19 9 24 -20 3 -17 8 -42 10 -53 9 -43 18 -100
25 -149 l6 -50 -130 -104 c-71 -57 -158 -128 -193 -158 l-62 -55 -38 22 c-65
40 -210 121 -332 188 -102 55 -325 194 -442 274 -218 149 -311 257 -443 510
-41 80 -75 147 -75 150 0 3 11 3 25 0 69 -13 109 34 107 128 -2 56 -2 61 -17
115 -28 101 -119 146 -167 83 -19 -25 -33 -101 -22 -120 5 -9 4 -10 -4 -3 -14
14 -105 216 -136 305 -57 162 -79 271 -112 530 -11 88 -18 376 -10 435 2 17 7
66 11 110 3 44 8 98 11 120 6 54 13 211 15 313 1 56 5 82 13 80 23 -4 54 13
60 35 6 21 7 21 26 -9 11 -17 32 -69 46 -115z m5177 93 c24 -3 27 -8 28 -40 2
-107 16 -365 24 -427 12 -101 19 -233 18 -320 -1 -109 -10 -278 -17 -310 -2
-11 -7 -46 -11 -79 -27 -226 -111 -495 -219 -701 l-16 -30 0 45 c0 54 -29 107
-64 116 -30 7 -78 -17 -100 -50 -9 -14 -24 -54 -32 -88 -37 -144 12 -244 104
-214 21 7 17 -5 -38 -111 -115 -225 -167 -300 -284 -411 -88 -83 -390 -286
-595 -400 -194 -107 -322 -179 -354 -199 -33 -20 -41 -22 -55 -11 -17 13 -153
129 -162 138 -6 6 -59 47 -147 114 -62 47 -63 48 -58 89 14 112 38 242 47 242
5 0 151 -126 240 -206 60 -56 150 -134 163 -141 7 -4 38 -3 69 3 48 10 71 24
173 107 119 97 347 312 364 344 13 24 -4 83 -95 332 -42 114 -76 214 -76 221
0 7 30 52 66 101 119 161 194 291 406 702 55 105 124 246 153 313 36 80 84
162 143 247 49 70 94 136 99 147 6 11 25 74 41 140 17 66 39 147 50 180 12 33
26 78 31 100 6 22 20 55 32 74 l21 34 12 -24 c7 -15 22 -25 39 -27z m-4442
-1238 c147 -180 214 -323 234 -498 6 -52 5 -58 -8 -44 -42 41 -192 303 -342
593 l-87 170 74 -76 c40 -41 98 -106 129 -145z m3729 89 c-34 -65 -79 -149
-100 -188 -20 -38 -54 -101 -75 -140 -80 -149 -179 -305 -193 -305 -10 0 0 86
19 164 29 126 138 307 272 450 21 23 59 64 85 93 25 29 48 50 50 48 2 -2 -24
-56 -58 -122z m-1375 -736 c57 -6 139 -16 205 -23 25 -3 49 -10 54 -14 5 -5
-16 -94 -49 -207 -31 -109 -64 -227 -72 -263 -9 -36 -17 -67 -18 -68 -2 -2
-63 6 -137 18 -73 12 -148 23 -165 26 -30 4 -33 8 -33 38 0 21 -8 40 -21 52
-20 18 -42 19 -311 21 -333 3 -343 1 -354 -67 -7 -44 -9 -45 -103 -55 -29 -3
-56 -7 -60 -9 -7 -4 -115 -19 -150 -20 -22 -1 -26 6 -47 89 -12 50 -45 169
-73 265 -36 125 -47 177 -38 182 6 4 41 10 77 14 36 3 74 8 85 10 11 2 70 7
130 10 61 4 112 8 114 10 6 5 909 -3 966 -9z m-1441 -207 c14 -52 37 -131 51
-175 14 -44 28 -93 31 -109 3 -16 7 -32 9 -35 2 -4 6 -25 9 -47 6 -39 4 -43
-36 -75 -42 -33 -197 -169 -228 -199 -34 -33 -152 -135 -160 -138 -14 -5 -185
139 -341 288 -74 72 -78 77 -70 105 10 34 131 368 134 372 2 1 16 -10 32 -25
38 -36 220 -181 263 -211 28 -20 38 -22 58 -12 29 13 102 125 170 260 27 54
50 98 50 97 1 0 13 -44 28 -96z m1942 -174 c47 -73 69 -96 90 -96 21 0 275
197 316 245 19 23 9 44 93 -186 79 -217 81 -189 -28 -294 -143 -138 -303 -275
-321 -275 -3 0 -32 24 -64 53 -176 159 -239 214 -299 264 -38 30 -69 56 -70
57 -5 5 106 414 132 485 3 7 28 -30 55 -84 28 -53 71 -129 96 -169z m-845
-176 c0 -3 2 -15 3 -28 4 -34 35 -59 81 -66 22 -3 83 -12 135 -20 133 -21 153
-24 169 -25 15 -1 13 -26 -15 -176 -9 -49 -17 -99 -19 -110 -1 -11 -3 -24 -4
-29 -1 -8 -100 -3 -193 11 -56 8 -653 8 -738 0 -36 -3 -94 -9 -130 -13 l-66
-6 -17 103 c-21 130 -26 158 -32 186 -6 26 1 31 51 39 191 28 284 44 308 54
14 5 27 14 27 20 1 5 3 15 4 20 1 6 3 18 4 28 1 16 18 17 216 17 118 0 215 -2
216 -5z m209 -594 c25 -3 70 -8 100 -11 37 -4 70 -16 104 -38 59 -38 230 -174
234 -188 2 -5 -16 -10 -40 -10 -23 -1 -57 -3 -75 -5 -17 -2 -74 -5 -125 -7
-51 -2 -100 -7 -107 -12 -18 -11 -859 -13 -971 -2 -47 4 -109 10 -139 12 -29
1 -101 6 -160 10 -58 4 -107 8 -109 10 -5 5 159 139 224 183 64 43 67 43 279
62 88 7 714 4 785 -4z"/>
<path d="M2257 7011 c-45 -21 -106 -76 -108 -97 -1 -8 -1 -21 -1 -29 0 -38 4
-47 34 -64 72 -44 218 27 241 118 18 74 -75 115 -166 72z"/>
<path d="M5435 7005 c-51 -50 -15 -129 82 -176 65 -31 120 -30 150 5 46 54 15
123 -79 170 -67 34 -121 34 -153 1z"/>
<path d="M3822 410 c-67 -30 -83 -96 -36 -143 30 -30 69 -41 140 -40 74 2 122
25 139 67 22 51 -2 98 -60 121 -41 16 -142 13 -183 -5z"/>
</g>
</svg>
